# xmcd
#
# Track frame offsets: 
#        182
#        24387
#        42930
#        55275
#        76877
#        89915
#        111077
#        129285
#        155370
#        177202
#        194025
#        209920
#        237660
#        253842
#        275260
#        299575
#        320687
#
# Disc length: 4589 seconds
#
# Revision: 14
# Processed by: cddbd v1.5.2PL0 Copyright (c) Steve Scherf et al.
# Submitted via: ExactAudioCopy v1.2
#
DISCID=0811eb11
DTITLE=Roberta Flack - Softly with These Songs - The Best of Roberta F
DTITLE=lack
DYEAR=1993
DGENRE=R&B
TTITLE0=The First Time Ever I Saw Your Face
TTITLE1=Will You Still Love Me Tomorrow
TTITLE2=Where Is the Love [with Donny Hathaway]
TTITLE3=Killing Me Softly with His Song
TTITLE4=Feel Like Makin' Love
TTITLE5=The Closer I Get to You
TTITLE6=More Than Everything
TTITLE7=Only Heaven Can Wait (For Love)
TTITLE8=Back Together Again
TTITLE9=Making Love
TTITLE10=Tonight, I Celebrate My Love [with Peabo Bryson]
TTITLE11=Oasis
TTITLE12=And So It Goes
TTITLE13=You Know What It's Like
TTITLE14=Set the Night to Music
TTITLE15=My Foolish Heart
TTITLE16=Uh-Uh Ooh-Ooh Look Out (Here It Comes) [Steve Hurley's House 
TTITLE16=Mix]
EXTD=
EXTT0=
EXTT1=
EXTT2=
EXTT3=
EXTT4=
EXTT5=
EXTT6=
EXTT7=
EXTT8=
EXTT9=
EXTT10=
EXTT11=
EXTT12=
EXTT13=
EXTT14=
EXTT15=
EXTT16=
PLAYORDER=
